<svg width="400" height="180" viewBox="0 0 400 180" xmlns="http://www.w3.org/2000/svg">
  <defs>
    <linearGradient id="grad-rust" x1="0%" y1="0%" x2="100%" y2="0%">
      <stop offset="0%" stop-color="#ff8c42" />
      <stop offset="100%" stop-color="#f25f1c" />
    </linearGradient>
    <linearGradient id="grad-svelte" x1="0%" y1="0%" x2="100%" y2="0%">
      <stop offset="0%" stop-color="#ff5e5b" />
      <stop offset="100%" stop-color="#ff3d12" />
    </linearGradient>
    <linearGradient id="grad-react" x1="0%" y1="0%" x2="100%" y2="0%">
      <stop offset="0%" stop-color="#7bdff2" />
      <stop offset="100%" stop-color="#0096c7" />
    </linearGradient>
    <linearGradient id="grad-cpp" x1="0%" y1="0%" x2="100%" y2="0%">
      <stop offset="0%" stop-color="#b3c7ff" />
      <stop offset="100%" stop-color="#4b6fff" />
    </linearGradient>
  </defs>
  <rect x="0" y="0" width="400" height="180" rx="12" fill="#0b1221" />
  <text x="20" y="32" fill="#e5e9f0" font-family="Arial, sans-serif" font-size="18" font-weight="600">Language Usage</text>
  <text x="20" y="54" fill="#94a3b8" font-family="Arial, sans-serif" font-size="12">github.com/299-792-458</text>
  <rect x="20" y="80" width="360" height="26" rx="10" fill="#111827" stroke="#1f2937" />
  <rect x="20" y="80" width="108" height="26" rx="10" fill="url(#grad-rust)" />
  <rect x="128" y="80" width="90" height="26" fill="url(#grad-svelte)" />
  <rect x="218" y="80" width="90" height="26" fill="url(#grad-react)" />
  <rect x="308" y="80" width="72" height="26" rx="0 10 10 0" fill="url(#grad-cpp)" />
  <g font-family="Arial, sans-serif" font-size="12" fill="#e5e9f0">
    <rect x="20" y="120" width="14" height="14" rx="3" fill="url(#grad-rust)" />
    <text x="40" y="132">Rust — 30%</text>
    <rect x="140" y="120" width="14" height="14" rx="3" fill="url(#grad-svelte)" />
    <text x="160" y="132">SvelteKit — 25%</text>
    <rect x="20" y="146" width="14" height="14" rx="3" fill="url(#grad-react)" />
    <text x="40" y="158">React — 25%</text>
    <rect x="140" y="146" width="14" height="14" rx="3" fill="url(#grad-cpp)" />
    <text x="160" y="158">C++ — 20%</text>
  </g>
</svg>
